<svg xmlns="http://www.w3.org/2000/svg" viewBox="0 0 800 600" role="img" aria-label="Embedded software workspace illustration">
  <rect width="800" height="600" fill="#f5f5f5"/>
  <rect x="0" y="420" width="800" height="180" fill="#ebebeb"/>
  <rect x="80" y="120" width="320" height="220" rx="8" fill="#e0e0e0" stroke="#c8c8c8" stroke-width="2"/>
  <rect x="100" y="140" width="280" height="160" rx="4" fill="#2a2a2a"/>
  <rect x="120" y="160" width="120" height="8" rx="2" fill="#0891b2" opacity="0.8"/>
  <rect x="120" y="180" width="200" height="6" rx="2" fill="#666666"/>
  <rect x="120" y="198" width="160" height="6" rx="2" fill="#666666"/>
  <rect x="120" y="216" width="180" height="6" rx="2" fill="#666666"/>
  <rect x="120" y="234" width="140" height="6" rx="2" fill="#666666"/>
  <rect x="480" y="280" width="200" height="140" rx="6" fill="#1a1a1a" stroke="#444444" stroke-width="2"/>
  <circle cx="520" cy="320" r="12" fill="#0891b2"/>
  <rect x="500" y="350" width="160" height="4" rx="1" fill="#555555"/>
  <rect x="500" y="365" width="120" height="4" rx="1" fill="#555555"/>
  <rect x="500" y="380" width="140" height="4" rx="1" fill="#555555"/>
  <rect x="460" y="360" width="48" height="80" rx="4" fill="#333333" stroke="#555555" stroke-width="1"/>
  <path d="M 200 340 L 240 340 L 260 380 L 180 380 Z" fill="#888888"/>
  <rect x="300" y="360" width="60" height="20" rx="3" fill="#777777"/>
  <rect x="140" y="400" width="400" height="12" rx="2" fill="#cccccc"/>
  <circle cx="620" cy="200" r="40" fill="none" stroke="#aaaaaa" stroke-width="3"/>
  <line x1="620" y1="160" x2="620" y2="120" stroke="#aaaaaa" stroke-width="2"/>
  <line x1="580" y1="200" x2="540" y2="200" stroke="#aaaaaa" stroke-width="2"/>
</svg>
