<svg xmlns="http://www.w3.org/2000/svg" viewBox="0 0 640 360" width="640" height="360">
  <rect width="640" height="360" fill="#0e1a24"/>
  <rect x="190" y="90" width="260" height="180" rx="10" fill="#1a2a36" stroke="#c4dfff" stroke-width="2"/>
  <rect x="230" y="120" width="180" height="120" fill="#11324b" stroke="#2a4558" stroke-width="2"/>
  <rect x="270" y="165" width="100" height="14" rx="2" fill="#7eb8a8"/>
  <rect x="255" y="190" width="130" height="10" rx="2" fill="#5a8aa0"/>
  <g stroke="#d4a04a" stroke-width="4" stroke-linecap="round">
    <line x1="190" y1="120" x2="150" y2="120"/><line x1="190" y1="150" x2="150" y2="150"/>
    <line x1="190" y1="180" x2="150" y2="180"/><line x1="190" y1="210" x2="150" y2="210"/>
    <line x1="450" y1="120" x2="490" y2="120"/><line x1="450" y1="150" x2="490" y2="150"/>
    <line x1="450" y1="180" x2="490" y2="180"/><line x1="450" y1="210" x2="490" y2="210"/>
    <line x1="240" y1="90" x2="240" y2="50"/><line x1="290" y1="90" x2="290" y2="50"/>
    <line x1="340" y1="90" x2="340" y2="50"/><line x1="390" y1="90" x2="390" y2="50"/>
    <line x1="240" y1="270" x2="240" y2="310"/><line x1="290" y1="270" x2="290" y2="310"/>
    <line x1="340" y1="270" x2="340" y2="310"/><line x1="390" y1="270" x2="390" y2="310"/>
  </g>
</svg>
